# xmcd CD database file
#
# Track frame offsets:
#	183
#	21895
#	42955
#	66795
#	96755
#	112973
#	130955
#	141903
#	159835
#	187610
#	204695
#	217603
#	239850
#	263498
#
# Disc length: 3854 seconds
#
# Revision: 0
# Processed by: cddbd v1.4b41PL2 Copyright (c) Steve Scherf et al.
# Submitted via: Feurio! 1.61.1ß - http://www.feurio.com
#
DISCID=bb0f0c0e
DTITLE=Big Joe Duskin - Boogie Woogie Is My Religion
DYEAR=1900
DGENRE=
TTITLE0=Oodle Adle
TTITLE1=Pinetop's Boogie Woogie
TTITLE2=I Beg Nobody And I Want Nobody Begging Me
TTITLE3=Ida Bea
TTITLE4=Yancey Special
TTITLE5=Pig Foot Pete
TTITLE6=Cow Cow Boogie
TTITLE7=Dusty's Jump Boogie
TTITLE8=Since I Met You Baby
TTITLE9=Down The Road A Piece
TTITLE10=The Boogie Rocks
TTITLE11=Down On My Knees Begging
TTITLE12=One Dirty Rat
TTITLE13=My Little Kangaroo Girl
EXTD=Live in Paris
EXTT0=
EXTT1=
EXTT2=
EXTT3=
EXTT4=
EXTT5=
EXTT6=
EXTT7=
EXTT8=
EXTT9=
EXTT10=
EXTT11=
EXTT12=
EXTT13=
PLAYORDER=
